<svg xmlns="http://www.w3.org/2000/svg" width="24" height="24" viewBox="0 0 24 24">
  <path d="M14 9h5.5L14 3.5V9M7 2h8l6 6v12a2 2 0 0 1-2 2H7a2 2 0 0 1-2-2V4a2 2 0 0 1 2-2m5 10.4c.3 1 .9 1.7 1.5 2.2l.4.3c-.9.2-2.1.4-3.4 1l.4-1c.5-1 .8-1.7 1-2.5m6.5 3.8c.2-.1.3-.4.3-.6l-.1-.6c-.3-.4-1-.7-2.3-.7l-1.3.1-.9-.6a5.9 5.9 0 0 1-1.6-2.5V11c.4-1.3.7-2.9 0-3.6a.9.9 0 0 0-.6-.2h-.2c-.4 0-.7.4-.8.8-.4 1.3-.1 2 .2 3.2a17 17 0 0 1-1 3L9 16l-.9.5c-1.2.7-1.8 1.6-1.9 2v.6h.1l.5.4.4.1c.8 0 1.8-1 3-3l.2-.1c1-.4 2.3-.6 4-.8 1 .5 2.2.8 3 .8.4 0 .7-.2 1-.4m-.5-.7v.2l-.2.1c-.5 0-1.2-.2-2-.5l.3-.1c1.4 0 1.8.2 1.9.3M8.8 17c-.6 1.2-1.2 1.9-1.7 2 0-.4.5-1 1.3-1.7l.4-.3m3-7c-.2-.8-.2-1.5 0-2h.2c.2.2.2.5 0 1v.2l-.1.9z"/>
</svg>
