<svg xmlns="http://www.w3.org/2000/svg" width="449.1" height="449.1" viewBox="0 0 449.1 449.1">
  <path d="M340.4 400.3H336v-256a72 72 0 0 0-51-68.7V51.3h33c3.6 0 6.5-3 6.5-6.5v-27c0-3.7-3-6.6-6.5-6.6h-33V6.5c0-3.6-2.9-6.5-6.4-6.5H250c-3 0-5.4 2-6.2 4.7H212c-1 0-1.9.2-2.7.6L115 47.5a6.5 6.5 0 0 0-3 2.7L103 65.5a6.5 6.5 0 0 0 1.7 8.4l7 5.5c2.7 2 6.3 1.8 8.6-.5l9-9 47-20.4-30 39.8a6.5 6.5 0 0 0-1.4 4v18.6a6.5 6.5 0 0 0 6.5 6.5h13.9c3.6 0 6.5-3 6.5-6.5v-10.7l59.2-44.6h12.4v19a72 72 0 0 0-50.9 68.6v256h-4.4c-3.6 0-6.5 3-6.5 6.6v35.8c0 3.6 2.9 6.5 6.5 6.5h152.2c3.6 0 6.5-2.9 6.5-6.5v-35.8c0-3.6-2.9-6.5-6.5-6.5zm-85-103.7c0-8 4.1-15 12.6-25.9a36.7 36.7 0 0 1 9.2 26.5h-21.7v-.6zm54 .6h-14.8c2.2-5.7 2.9-12 2-18.2-2.7-21.2-17.8-35.8-26.5-42.6a8.4 8.4 0 0 0-13.2 4 74 74 0 0 1-10 17.5c-2.3 3.4-4.6 6.6-6.2 9.7a36.9 36.9 0 0 0-2.9 29.6h-18.4v-71h90v71z"/>
</svg>
