<svg xmlns="http://www.w3.org/2000/svg" width="470.5" height="470.5" viewBox="0 0 470.5 470.5">
  <path d="M365.3 179.6a95.3 95.3 0 0 1-54.4-34.2 89.4 89.4 0 0 1-17-44.6 5 5 0 0 0-7-4c-16.9 7.5-41.7 16.5-64.2 16.5-9 0-17.1-1.4-24-4.3a43.7 43.7 0 0 1-22.2-21 5 5 0 0 0-5.7-2.5c-50.7 12.9-70 62.3-77.1 90.6a5 5 0 0 0 1 4.4L163 261a5 5 0 0 0 7.9-.3c18.9-26.4 38.8-38.1 64.4-38.1s45.4 11.7 64.3 38a5 5 0 0 0 8 .3l60.3-73.2a5 5 0 0 0-2.6-8z"/>
  <path d="M381.8 317.4c-5-3.1-10.3-5.4-15.9-6.8a433 433 0 0 0 9.8-30.6c1.7-7.5 5.2-12.5 9.7-14.2a5 5 0 0 0 3-3.3l17.9-60.6a5 5 0 0 0-4.2-6.3l-19.4-2.4a5 5 0 0 0-4.4 1.8l-65.7 79.6a5 5 0 0 0-.5 5.7c5.4 9.4 11 20.5 17.8 34.8l-.9 2.6a282.8 282.8 0 0 1-21.3 47.7c-13.7 22.8-41.4 45.8-72.4 45.8-31.1 0-58.8-23-72.4-45.7v-.1c-6.7-11-14.3-28-21.4-47.7l-.9-2.6a491.6 491.6 0 0 1 17.8-34.8c1-1.9.8-4.1-.5-5.7L92.2 195a5 5 0 0 0-4.4-1.8l-19.4 2.4a5 5 0 0 0-4.2 6.3l18 60.6a5 5 0 0 0 3 3.3c4.4 1.7 7.9 6.7 9.6 14.2v.1c2.3 8.4 5.8 19.3 9.8 30.5a56 56 0 0 0-34 83.9l30.8 49.5a55.7 55.7 0 0 0 77.1 18 56 56 0 0 0 22-25.6 99.7 99.7 0 0 0 34.7 6.4c11.7 0 23.3-2.2 34.8-6.4a56 56 0 0 0 99 7.6l30.9-49.5a56 56 0 0 0-18-77.1zm-218.6 120a26.9 26.9 0 0 1-37.1-8.7l-30.8-49.5A26.8 26.8 0 0 1 104 342a27 27 0 0 1 11.2-3.9l2.6 6.1c6 15.2 12 27.8 18 37.5 9.6 16 23.3 30.5 38.8 41.2-2 6-5.9 11.1-11.4 14.5zm212-58.2l-30.7 49.5a26.9 26.9 0 0 1-48.6-5.8 135.2 135.2 0 0 0 38.8-41.2c6-9.7 12-22.3 18-37.5l2.6-6a27 27 0 0 1 20 41zM88.5 88.4l2.2 33.5a5 5 0 0 0 9.6 2c19-36 48.6-57.4 85.9-62 0 0 5.7-.8 7.6 1 1.6 1.6 2.8 6.2 2.8 6.2 2.2 9.4 6.8 15.5 14.1 18.6 4.2 1.8 9.3 2.7 15.2 2.7 25.5 0 62-18.7 72.3-24.2 9.1-4.8 16.5-3.1 14 10-.4 2.8-4.9 29.6 12.3 52.3 10.1 13.3 26.1 22.2 47.5 26.4a6 6 0 0 0 4.1-1 5.1 5.1 0 0 0 2-3.7l4-62.4S384.7 62 368 40.5C346.7 13.3 300 0 235.3 0s-111 13.6-132.6 40.5C85.3 62 88.4 83.7 88.5 88.4z"/>
</svg>
