<svg xmlns="http://www.w3.org/2000/svg" width="438.5" height="438.5" viewBox="0 0 438.5 438.5">
  <path d="M420.3 328.9h-402c-5 0-9.3 1.8-12.9 5.4A17.6 17.6 0 0 0 0 347.2v36.5c0 5 1.8 9.3 5.4 12.9 3.6 3.6 8 5.4 12.9 5.4h402c5 0 9.2-1.8 12.8-5.4 3.6-3.6 5.4-8 5.4-12.9v-36.5c0-5-1.8-9.3-5.4-12.9a17.6 17.6 0 0 0-12.8-5.4zM433.1 42a17.6 17.6 0 0 0-12.8-5.5h-402c-5 0-9.3 1.9-12.9 5.5A17.6 17.6 0 0 0 0 54.8v36.6c0 5 1.8 9.2 5.4 12.8 3.6 3.6 8 5.4 12.9 5.4h402c5 0 9.2-1.8 12.8-5.4 3.6-3.6 5.4-7.9 5.4-12.8V54.8c0-5-1.8-9.2-5.4-12.8zM420.3 182.7h-402c-5 0-9.3 1.8-12.9 5.4A17.6 17.6 0 0 0 0 201v36.5c0 5 1.8 9.3 5.4 12.9 3.6 3.6 8 5.4 12.9 5.4h402c5 0 9.2-1.8 12.8-5.4 3.6-3.6 5.4-8 5.4-12.9V201c0-5-1.8-9.2-5.4-12.9a17.6 17.6 0 0 0-12.8-5.4z"/>
</svg>
