<svg xmlns="http://www.w3.org/2000/svg" width="464.9" height="464.9" viewBox="0 0 464.9 464.9">
  <path d="M238 64.9l4.5 2.4c8 4.5 13.7 12.2 15.3 21.2l4 21.9a2.5 2.5 0 0 0 4.8.4l23.6-65.3a22.2 22.2 0 0 0-13.4-28.6 22.2 22.2 0 0 0-28.6 13.4L237 61.8c-.5 1.2 0 2.5 1.1 3zM280.2 99c.4.7 1 1.1 1.6 1.3l6.4 1.6c7.5 2 14 6.7 18.1 13.4l6.6 10.4a2.5 2.5 0 0 0 4.4-.5L351.8 30a22.2 22.2 0 0 0-13.4-28.6 22.2 22.2 0 0 0-28.6 13.4L280.1 97c-.3.7-.2 1.4.1 2z"/>
  <path d="M302 138.3a22.3 22.3 0 0 0-44.7 0v86.4h-8V100.9a22.3 22.3 0 0 0-44.6 0v123.8h-8V65.4a22.3 22.3 0 0 0-44.6 0v159.3h-8V100.9a22.3 22.3 0 0 0-44.6 0v141.3l-25.6-29.6A27.5 27.5 0 0 0 58 203l-3-.3c-4.8 0-9.2 1.8-13.1 5.2-11.1 9.6-12.7 22-5 37.9l62.7 119.6-8.3 96.8a2.5 2.5 0 0 0 2.5 2.7H308a2.5 2.5 0 0 0 2.5-2.7l-8.6-96.4V138.3zM418 105.7a22.2 22.2 0 0 0-28.6 13.4l-29.3 81.2-7.5-2.7 42-116.4A22.3 22.3 0 0 0 352.8 66l-36.1 100-.2 1v191.3l7.1 79.5a2.5 2.5 0 0 0 4.9.5l25.8-90.2 77.3-213.9a22.3 22.3 0 0 0-13.4-28.5z"/>
</svg>
