<svg xmlns="http://www.w3.org/2000/svg" viewBox="0 0 100 100">
  <circle cx="50" cy="50" r="45" fill="#4A74A5"/>
  <path fill="#FFF" fill-rule="evenodd" d="M42.27 38.83c.21-.55.6-.89 1.09-1.13.92-.45 1.92-.6 2.93-.57 1.44.03 2.88.12 4.32.18a5.6 5.6 0 0 1 1.9.3 2.1 2.1 0 0 1 1.42 2.03c.01.78-.1 1.56-.12 2.34-.06 1.67-.13 3.34-.13 5 0 .54.22 1.07.36 1.59.04.15.14.28.23.4.35.5.47.5.96.19a7.97 7.97 0 0 0 2.21-2.25 25.26 25.26 0 0 0 2.21-3.74c.62-1.3 1.24-2.61 1.83-3.94.28-.66.73-.94 1.45-.93h8.09c.86 0 1.48.74 1.28 1.59-.2.9-.6 1.7-1.08 2.46a44.05 44.05 0 0 1-4.52 6.15 6.33 6.33 0 0 0-1.41 2.27c-.3.95-.1 1.78.6 2.49 1.25 1.25 2.54 2.47 3.76 3.75.73.76 1.36 1.6 2 2.44.4.54.67 1.15.6 1.86-.09.78-.49 1.19-1.27 1.23-1.52.08-3.04.14-4.56.2-.89.04-1.77.1-2.66.13-.7.03-1.34-.23-1.94-.57-.95-.55-1.75-1.3-2.53-2.05a13.95 13.95 0 0 1-2.17-2.58c-.39-.6-1.46-.94-2.13-.69-.52.2-.77.62-.82 1.15-.1.87-.14 1.75-.22 2.62-.1 1.07-.78 1.74-1.85 1.88-2.1.29-4.2.18-6.27-.23a10.67 10.67 0 0 1-4.1-1.92 25.9 25.9 0 0 1-6.5-6.9 91.59 91.59 0 0 1-5.4-8.85c-.77-1.47-1.54-2.94-1.95-4.57-.1-.36-.14-.74-.21-1.11-.04-.19.03-.32.2-.37.44-.14.87-.34 1.32-.36 1.43-.06 2.86-.05 4.29-.06.62 0 1.24.06 1.85.03.83-.05 1.39.34 1.74 1.03.36.7.67 1.42 1 2.12 1.23 2.53 2.55 5 4.26 7.25.25.33.63.59 1 .8.44.25.82.12 1.09-.31.32-.52.46-1.09.47-1.69.03-1.69.08-3.38.06-5.06-.02-1.75-.88-2.9-2.52-3.53l-.16-.07z" clip-rule="evenodd"/>
</svg>
