<svg xmlns="http://www.w3.org/2000/svg" viewBox="0 0 100 100">
  <circle cx="50" cy="50" r="45" fill="#F99400"/>
  <g fill="#FFF" fill-rule="evenodd" clip-rule="evenodd">
    <path d="M45.72 59.26a19.6 19.6 0 0 1-6.08-2.52 3.08 3.08 0 0 1-1.03-4.22 3.06 3.06 0 0 1 4.24-1.05c1.46.88 3 1.52 4.68 1.83 3.31.59 6.42.04 9.32-1.66.59-.35 1.18-.62 1.89-.62a3.1 3.1 0 0 1 2.96 2.19c.4 1.3-.1 2.73-1.26 3.47a19.24 19.24 0 0 1-5.85 2.5l-.3.08.21.24 5.56 5.56a3.1 3.1 0 1 1-4.3 4.42c-1.86-1.84-3.7-3.68-5.54-5.53l-.27-.3c-.06.12-.1.22-.16.3l-5.55 5.54a3.08 3.08 0 1 1-4.51-4.2c.15-.18.31-.34.47-.5l5.3-5.3.22-.23z"/>
    <path d="M50 29.57a10.53 10.53 0 1 1-10.55 10.56 10.55 10.55 0 0 1 10.56-10.56zm4.36 10.55a4.36 4.36 0 1 0-8.72-.02 4.36 4.36 0 0 0 8.72.02z"/>
  </g>
</svg>
