<svg xmlns="http://www.w3.org/2000/svg" width="433.3" height="433.3" viewBox="0 0 433.3 433.3">
  <path d="M354.7 366.1c-69.7-19.4-183.7-91.9-188.6-95l-2.3-1.4V86.3a5 5 0 0 0-5-5H34a5 5 0 0 0-5 5v214l-.2.8c-.2.7-18.7 66.5-3.3 124.8l1 3.7a5 5 0 0 0 4.8 3.7H109a5 5 0 0 0 5-5v-29h39.4l67.5 33.5a5 5 0 0 0 2.2.5h165.6a5 5 0 0 0 5-5.1l-.2-5.2c-.6-17.4-6.5-47.9-38.8-56.9z"/>
  <path d="M414 379.3l-1.4-16a47.5 47.5 0 0 0-25.6-40c-59.8-31.5-149.5-120-153.2-123.7l-1.6-1.5 36.1-167.3a5 5 0 0 0-3.8-6L150 .1a5 5 0 0 0-6 3.8L132 60.3a5 5 0 0 0 4.8 6h44.5v190.1a5 5 0 0 0 2.4 4.3l2.3 1.4c27.2 16.9 120.5 73 178.9 89.4a58.4 58.4 0 0 1 30.1 19l10.2 12.4a5 5 0 0 0 8.9-3.6z"/>
</svg>
