<svg xmlns="http://www.w3.org/2000/svg"><symbol id="account" viewBox="0 0 24 24"><path d="M12 4a4 4 0 0 1 4 4 4 4 0 0 1-4 4 4 4 0 0 1-4-4 4 4 0 0 1 4-4m0 10c4.42 0 8 1.79 8 4v2H4v-2c0-2.21 3.58-4 8-4z"/></symbol><symbol id="at" viewBox="0 0 24 24"><path d="M12 15c.81 0 1.5-.3 2.11-.89.59-.61.89-1.3.89-2.11 0-.81-.3-1.5-.89-2.11C13.5 9.3 12.81 9 12 9c-.81 0-1.5.3-2.11.89C9.3 10.5 9 11.19 9 12c0 .81.3 1.5.89 2.11.61.59 1.3.89 2.11.89m0-13c2.75 0 5.1 1 7.05 2.95C21 6.9 22 9.25 22 12v1.45c0 1-.35 1.85-1 2.55-.7.67-1.5 1-2.5 1-1.2 0-2.19-.5-2.94-1.5-1 1-2.18 1.5-3.56 1.5-1.37 0-2.55-.5-3.54-1.46C7.5 14.55 7 13.38 7 12c0-1.37.5-2.55 1.46-3.54C9.45 7.5 10.63 7 12 7c1.38 0 2.55.5 3.54 1.46C16.5 9.45 17 10.63 17 12v1.45c0 .41.16.77.46 1.08.3.31.65.47 1.04.47.42 0 .77-.16 1.07-.47.3-.31.43-.67.43-1.08V12c0-2.19-.77-4.07-2.35-5.65S14.19 4 12 4c-2.19 0-4.07.77-5.65 2.35S4 9.81 4 12c0 2.19.77 4.07 2.35 5.65S9.81 20 12 20h5v2h-5c-2.75 0-5.1-1-7.05-2.95C3 17.1 2 14.75 2 12s1-5.1 2.95-7.05C6.9 3 9.25 2 12 2z"/></symbol><symbol id="cart" viewBox="0 0 24 24"><path d="M17 18c-1.11 0-2 .89-2 2a2 2 0 0 0 2 2 2 2 0 0 0 2-2 2 2 0 0 0-2-2M1 2v2h2l3.6 7.59-1.36 2.45c-.15.28-.24.61-.24.96a2 2 0 0 0 2 2h12v-2H7.42a.25.25 0 0 1-.25-.25c0-.05.01-.09.03-.12L8.1 13h7.45c.75 0 1.41-.42 1.75-1.03l3.58-6.47c.07-.16.12-.33.12-.5a1 1 0 0 0-1-1H5.21l-.94-2M7 18c-1.11 0-2 .89-2 2a2 2 0 0 0 2 2 2 2 0 0 0 2-2 2 2 0 0 0-2-2z"/></symbol><symbol id="exit-to-app" viewBox="0 0 24 24"><path d="M19 3H5c-1.11 0-2 .89-2 2v4h2V5h14v14H5v-4H3v4a2 2 0 0 0 2 2h14a2 2 0 0 0 2-2V5a2 2 0 0 0-2-2m-8.92 12.58L11.5 17l5-5-5-5-1.42 1.41L12.67 11H3v2h9.67l-2.59 2.58z"/></symbol><symbol id="magnify" viewBox="0 0 24 24"><path d="M9.5 3A6.5 6.5 0 0 1 16 9.5c0 1.61-.59 3.09-1.56 4.23l.27.27h.79l5 5-1.5 1.5-5-5v-.79l-.27-.27A6.516 6.516 0 0 1 9.5 16 6.5 6.5 0 0 1 3 9.5 6.5 6.5 0 0 1 9.5 3m0 2C7 5 5 7 5 9.5S7 14 9.5 14 14 12 14 9.5 12 5 9.5 5z"/></symbol><symbol id="phone" viewBox="0 0 24 24"><path d="M6.62 10.79c1.44 2.83 3.76 5.15 6.59 6.59l2.2-2.2c.28-.28.67-.36 1.02-.25 1.12.37 2.32.57 3.57.57a1 1 0 0 1 1 1V20a1 1 0 0 1-1 1A17 17 0 0 1 3 4a1 1 0 0 1 1-1h3.5a1 1 0 0 1 1 1c0 1.25.2 2.45.57 3.57.11.35.03.74-.25 1.02l-2.2 2.2z"/></symbol></svg>