<svg xmlns="http://www.w3.org/2000/svg"><symbol id="account" viewBox="0 0 24 24"><path d="M12 4a4 4 0 0 1 4 4 4 4 0 0 1-4 4 4 4 0 0 1-4-4 4 4 0 0 1 4-4m0 10c4.42 0 8 1.79 8 4v2H4v-2c0-2.21 3.58-4 8-4z"/></symbol><symbol id="at" viewBox="0 0 24 24"><path d="M12 15c.81 0 1.5-.3 2.11-.89.59-.61.89-1.3.89-2.11 0-.81-.3-1.5-.89-2.11C13.5 9.3 12.81 9 12 9c-.81 0-1.5.3-2.11.89C9.3 10.5 9 11.19 9 12c0 .81.3 1.5.89 2.11.61.59 1.3.89 2.11.89m0-13c2.75 0 5.1 1 7.05 2.95C21 6.9 22 9.25 22 12v1.45c0 1-.35 1.85-1 2.55-.7.67-1.5 1-2.5 1-1.2 0-2.19-.5-2.94-1.5-1 1-2.18 1.5-3.56 1.5-1.37 0-2.55-.5-3.54-1.46C7.5 14.55 7 13.38 7 12c0-1.37.5-2.55 1.46-3.54C9.45 7.5 10.63 7 12 7c1.38 0 2.55.5 3.54 1.46C16.5 9.45 17 10.63 17 12v1.45c0 .41.16.77.46 1.08.3.31.65.47 1.04.47.42 0 .77-.16 1.07-.47.3-.31.43-.67.43-1.08V12c0-2.19-.77-4.07-2.35-5.65S14.19 4 12 4c-2.19 0-4.07.77-5.65 2.35S4 9.81 4 12c0 2.19.77 4.07 2.35 5.65S9.81 20 12 20h5v2h-5c-2.75 0-5.1-1-7.05-2.95C3 17.1 2 14.75 2 12s1-5.1 2.95-7.05C6.9 3 9.25 2 12 2z"/></symbol><symbol id="cart-off" viewBox="0 0 24 24"><path d="M22.7 22.7L1.3 1.3 0 2.5 4.4 7l2.2 4.7L5.3 14a2 2 0 0 0-.3 1 2 2 0 0 0 2 2h7.5l1.3 1.4A2 2 0 0 0 15 20a2 2 0 0 0 2 2 2 2 0 0 0 1.6-.8l2.9 2.8 1.2-1.3M7.4 15a.3.3 0 0 1-.2-.3l.9-1.7h2.4l2 2h-5m8-2a2 2 0 0 0 1.8-1l3.6-6.5.1-.5a1 1 0 0 0-1-1H6.5l9 9M7 18a2 2 0 0 0-2 2 2 2 0 0 0 2 2 2 2 0 0 0 2-2 2 2 0 0 0-2-2z"/></symbol><symbol id="cart" viewBox="0 0 24 24"><path d="M17 18c-1.11 0-2 .89-2 2a2 2 0 0 0 2 2 2 2 0 0 0 2-2 2 2 0 0 0-2-2M1 2v2h2l3.6 7.59-1.36 2.45c-.15.28-.24.61-.24.96a2 2 0 0 0 2 2h12v-2H7.42a.25.25 0 0 1-.25-.25c0-.05.01-.09.03-.12L8.1 13h7.45c.75 0 1.41-.42 1.75-1.03l3.58-6.47c.07-.16.12-.33.12-.5a1 1 0 0 0-1-1H5.21l-.94-2M7 18c-1.11 0-2 .89-2 2a2 2 0 0 0 2 2 2 2 0 0 0 2-2 2 2 0 0 0-2-2z"/></symbol><symbol id="close" viewBox="0 0 24 24"><path d="M19 6.4L17.6 5 12 10.6 6.4 5 5 6.4l5.6 5.6L5 17.6 6.4 19l5.6-5.6 5.6 5.6 1.4-1.4-5.6-5.6L19 6.4z"/></symbol><symbol id="discount" viewBox="0 0 488 488"><circle cx="179.2" cy="202.6" r="20.4"/><circle cx="308.8" cy="285.4" r="20.4"/><path d="M477 271l-7.4-10.1c-8-11-8.2-26-.3-37.1l7.2-10.2a31.8 31.8 0 0 0-11-46.4l-11-6a31.7 31.7 0 0 1-16.3-33.2l2-12.3a31.8 31.8 0 0 0-30-37l-12.4-.5a31.9 31.9 0 0 1-29.2-23l-3.5-12A31.7 31.7 0 0 0 322 23l-11.5 4.9a31.7 31.7 0 0 1-36.2-8l-8.3-9.3a31.7 31.7 0 0 0-47.6.4l-8.2 9.4a31.8 31.8 0 0 1-36.1 8.5L162.5 24a31.8 31.8 0 0 0-42.8 21l-3.3 12a31.6 31.6 0 0 1-28.8 23.4l-12.5.7a31.7 31.7 0 0 0-29.4 37.5L48 131a31.7 31.7 0 0 1-15.8 33.5l-11 6a31.7 31.7 0 0 0-10.1 46.6l7.4 10c8 11 8.2 26 .3 37.2l-7.2 10.2a31.8 31.8 0 0 0 11 46.4l11 5.9A31.7 31.7 0 0 1 49.9 360l-2.1 12.3a31.8 31.8 0 0 0 30 37l12.5.5c13.6.6 25.4 9.8 29.2 22.9l3.5 12a31.7 31.7 0 0 0 43 20.3l11.6-5a31.7 31.7 0 0 1 36.2 8l8.3 9.4a31.7 31.7 0 0 0 47.6-.4l8.2-9.4a31.8 31.8 0 0 1 36-8.5l11.7 4.8a31.8 31.8 0 0 0 42.8-21l3.3-12.1a31.6 31.6 0 0 1 28.8-23.3l12.5-.7a31.7 31.7 0 0 0 29.4-37.5L440 357a31.7 31.7 0 0 1 15.8-33.5l10.9-6.1A31.7 31.7 0 0 0 477 271zm-347.1-68.4a49.2 49.2 0 1 1 98.3-.1 49.2 49.2 0 0 1-98.3 0zm58.7 126.9a12 12 0 0 1-18.5-15.3l129-155.5a12 12 0 0 1 18.6 15.3L188.6 329.5zm120.2 5a49.2 49.2 0 1 1-.1-98.3 49.2 49.2 0 0 1 0 98.4z"/></symbol><symbol id="exit-to-app" viewBox="0 0 24 24"><path d="M19 3H5c-1.11 0-2 .89-2 2v4h2V5h14v14H5v-4H3v4a2 2 0 0 0 2 2h14a2 2 0 0 0 2-2V5a2 2 0 0 0-2-2m-8.92 12.58L11.5 17l5-5-5-5-1.42 1.41L12.67 11H3v2h9.67l-2.59 2.58z"/></symbol><symbol id="file-excel" viewBox="0 0 24 24"><path d="M6 2h8l6 6v12a2 2 0 0 1-2 2H6a2 2 0 0 1-2-2V4a2 2 0 0 1 2-2m7 1.5V9h5.5L13 3.5m4 7.5h-4v2h1l-2 1.7-2-1.7h1v-2H7v2h1l3 2.5L8 18H7v2h4v-2h-1l2-1.7 2 1.7h-1v2h4v-2h-1l-3-2.5 3-2.5h1v-2z"/></symbol><symbol id="file-pdf" viewBox="0 0 24 24"><path d="M14 9h5.5L14 3.5V9M7 2h8l6 6v12a2 2 0 0 1-2 2H7a2 2 0 0 1-2-2V4a2 2 0 0 1 2-2m5 10.4c.3 1 .9 1.7 1.5 2.2l.4.3c-.9.2-2.1.4-3.4 1l.4-1c.5-1 .8-1.7 1-2.5m6.5 3.8c.2-.1.3-.4.3-.6l-.1-.6c-.3-.4-1-.7-2.3-.7l-1.3.1-.9-.6a5.9 5.9 0 0 1-1.6-2.5V11c.4-1.3.7-2.9 0-3.6a.9.9 0 0 0-.6-.2h-.2c-.4 0-.7.4-.8.8-.4 1.3-.1 2 .2 3.2a17 17 0 0 1-1 3L9 16l-.9.5c-1.2.7-1.8 1.6-1.9 2v.6h.1l.5.4.4.1c.8 0 1.8-1 3-3l.2-.1c1-.4 2.3-.6 4-.8 1 .5 2.2.8 3 .8.4 0 .7-.2 1-.4m-.5-.7v.2l-.2.1c-.5 0-1.2-.2-2-.5l.3-.1c1.4 0 1.8.2 1.9.3M8.8 17c-.6 1.2-1.2 1.9-1.7 2 0-.4.5-1 1.3-1.7l.4-.3m3-7c-.2-.8-.2-1.5 0-2h.2c.2.2.2.5 0 1v.2l-.1.9z"/></symbol><symbol id="fire-extinguisher" viewBox="0 0 449.1 449.1"><path d="M340.4 400.3H336v-256a72 72 0 0 0-51-68.7V51.3h33c3.6 0 6.5-3 6.5-6.5v-27c0-3.7-3-6.6-6.5-6.6h-33V6.5c0-3.6-2.9-6.5-6.4-6.5H250c-3 0-5.4 2-6.2 4.7H212c-1 0-1.9.2-2.7.6L115 47.5a6.5 6.5 0 0 0-3 2.7l-9 15.3a6.5 6.5 0 0 0 1.7 8.4l7 5.5c2.7 2 6.3 1.8 8.6-.5l9-9 47-20.4-30 39.8a6.5 6.5 0 0 0-1.4 4v18.6a6.5 6.5 0 0 0 6.5 6.5h13.9c3.6 0 6.5-3 6.5-6.5v-10.7L231 56.6h12.4v19a72 72 0 0 0-50.9 68.6v256h-4.4c-3.6 0-6.5 3-6.5 6.6v35.8c0 3.6 2.9 6.5 6.5 6.5h152.2c3.6 0 6.5-2.9 6.5-6.5v-35.8c0-3.6-2.9-6.5-6.5-6.5zm-85-103.7c0-8 4.1-15 12.6-25.9a36.7 36.7 0 0 1 9.2 26.5h-21.7v-.6zm54 .6h-14.8c2.2-5.7 2.9-12 2-18.2-2.7-21.2-17.8-35.8-26.5-42.6a8.4 8.4 0 0 0-13.2 4 74 74 0 0 1-10 17.5c-2.3 3.4-4.6 6.6-6.2 9.7a36.9 36.9 0 0 0-2.9 29.6h-18.4v-71h90v71z"/></symbol><symbol id="gas-mask" viewBox="0 0 470.5 470.5"><path d="M365.3 179.6a95.3 95.3 0 0 1-54.4-34.2 89.4 89.4 0 0 1-17-44.6 5 5 0 0 0-7-4c-16.9 7.5-41.7 16.5-64.2 16.5-9 0-17.1-1.4-24-4.3a43.7 43.7 0 0 1-22.2-21 5 5 0 0 0-5.7-2.5c-50.7 12.9-70 62.3-77.1 90.6a5 5 0 0 0 1 4.4L163 261a5 5 0 0 0 7.9-.3c18.9-26.4 38.8-38.1 64.4-38.1s45.4 11.7 64.3 38a5 5 0 0 0 8 .3l60.3-73.2a5 5 0 0 0-2.6-8z"/><path d="M381.8 317.4c-5-3.1-10.3-5.4-15.9-6.8a433 433 0 0 0 9.8-30.6c1.7-7.5 5.2-12.5 9.7-14.2a5 5 0 0 0 3-3.3l17.9-60.6a5 5 0 0 0-4.2-6.3l-19.4-2.4a5 5 0 0 0-4.4 1.8l-65.7 79.6a5 5 0 0 0-.5 5.7c5.4 9.4 11 20.5 17.8 34.8l-.9 2.6a282.8 282.8 0 0 1-21.3 47.7c-13.7 22.8-41.4 45.8-72.4 45.8-31.1 0-58.8-23-72.4-45.7v-.1c-6.7-11-14.3-28-21.4-47.7l-.9-2.6a491.6 491.6 0 0 1 17.8-34.8c1-1.9.8-4.1-.5-5.7L92.2 195a5 5 0 0 0-4.4-1.8l-19.4 2.4a5 5 0 0 0-4.2 6.3l18 60.6a5 5 0 0 0 3 3.3c4.4 1.7 7.9 6.7 9.6 14.2v.1c2.3 8.4 5.8 19.3 9.8 30.5a56 56 0 0 0-34 83.9l30.8 49.5a55.7 55.7 0 0 0 77.1 18 56 56 0 0 0 22-25.6 99.7 99.7 0 0 0 34.7 6.4c11.7 0 23.3-2.2 34.8-6.4a56 56 0 0 0 99 7.6l30.9-49.5a56 56 0 0 0-18-77.1zm-218.6 120a26.9 26.9 0 0 1-37.1-8.7l-30.8-49.5A26.8 26.8 0 0 1 104 342a27 27 0 0 1 11.2-3.9l2.6 6.1c6 15.2 12 27.8 18 37.5 9.6 16 23.3 30.5 38.8 41.2-2 6-5.9 11.1-11.4 14.5zm212-58.2l-30.7 49.5a26.9 26.9 0 0 1-48.6-5.8 135.2 135.2 0 0 0 38.8-41.2c6-9.7 12-22.3 18-37.5l2.6-6a27 27 0 0 1 20 41zM88.5 88.4l2.2 33.5a5 5 0 0 0 9.6 2c19-36 48.6-57.4 85.9-62 0 0 5.7-.8 7.6 1 1.6 1.6 2.8 6.2 2.8 6.2 2.2 9.4 6.8 15.5 14.1 18.6 4.2 1.8 9.3 2.7 15.2 2.7 25.5 0 62-18.7 72.3-24.2 9.1-4.8 16.5-3.1 14 10-.4 2.8-4.9 29.6 12.3 52.3 10.1 13.3 26.1 22.2 47.5 26.4a6 6 0 0 0 4.1-1 5.1 5.1 0 0 0 2-3.7l4-62.4S384.7 62 368 40.5C346.7 13.3 300 0 235.3 0s-111 13.6-132.6 40.5C85.3 62 88.4 83.7 88.5 88.4z"/></symbol><symbol id="magnify" viewBox="0 0 24 24"><path d="M9.5 3A6.5 6.5 0 0 1 16 9.5c0 1.61-.59 3.09-1.56 4.23l.27.27h.79l5 5-1.5 1.5-5-5v-.79l-.27-.27A6.516 6.516 0 0 1 9.5 16 6.5 6.5 0 0 1 3 9.5 6.5 6.5 0 0 1 9.5 3m0 2C7 5 5 7 5 9.5S7 14 9.5 14 14 12 14 9.5 12 5 9.5 5z"/></symbol><symbol id="menu" viewBox="0 0 438.5 438.5"><path d="M420.3 328.9h-402c-5 0-9.3 1.8-12.9 5.4A17.6 17.6 0 0 0 0 347.2v36.5c0 5 1.8 9.3 5.4 12.9 3.6 3.6 8 5.4 12.9 5.4h402c5 0 9.2-1.8 12.8-5.4 3.6-3.6 5.4-8 5.4-12.9v-36.5c0-5-1.8-9.3-5.4-12.9a17.6 17.6 0 0 0-12.8-5.4zM433.1 42a17.6 17.6 0 0 0-12.8-5.5h-402c-5 0-9.3 1.9-12.9 5.5A17.6 17.6 0 0 0 0 54.8v36.6c0 5 1.8 9.2 5.4 12.8 3.6 3.6 8 5.4 12.9 5.4h402c5 0 9.2-1.8 12.8-5.4 3.6-3.6 5.4-7.9 5.4-12.8V54.8c0-5-1.8-9.2-5.4-12.8zm-12.8 140.7h-402c-5 0-9.3 1.8-12.9 5.4A17.6 17.6 0 0 0 0 201v36.5c0 5 1.8 9.3 5.4 12.9 3.6 3.6 8 5.4 12.9 5.4h402c5 0 9.2-1.8 12.8-5.4 3.6-3.6 5.4-8 5.4-12.9V201c0-5-1.8-9.2-5.4-12.9a17.6 17.6 0 0 0-12.8-5.4z"/></symbol><symbol id="phone" viewBox="0 0 24 24"><path d="M6.62 10.79c1.44 2.83 3.76 5.15 6.59 6.59l2.2-2.2c.28-.28.67-.36 1.02-.25 1.12.37 2.32.57 3.57.57a1 1 0 0 1 1 1V20a1 1 0 0 1-1 1A17 17 0 0 1 3 4a1 1 0 0 1 1-1h3.5a1 1 0 0 1 1 1c0 1.25.2 2.45.57 3.57.11.35.03.74-.25 1.02l-2.2 2.2z"/></symbol><symbol id="printer" viewBox="0 0 24 24"><path d="M18 3H6v4h12m1 5a1 1 0 0 1-1-1 1 1 0 0 1 1-1 1 1 0 0 1 1 1 1 1 0 0 1-1 1m-3 7H8v-5h8m3-6H5a3 3 0 0 0-3 3v6h4v4h12v-4h4v-6a3 3 0 0 0-3-3z"/></symbol><symbol id="protection-gloves" viewBox="0 0 464.9 464.9"><path d="M238 64.9l4.5 2.4c8 4.5 13.7 12.2 15.3 21.2l4 21.9a2.5 2.5 0 0 0 4.8.4l23.6-65.3a22.2 22.2 0 0 0-13.4-28.6 22.2 22.2 0 0 0-28.6 13.4L237 61.8c-.5 1.2 0 2.5 1.1 3zM280.2 99c.4.7 1 1.1 1.6 1.3l6.4 1.6c7.5 2 14 6.7 18.1 13.4l6.6 10.4a2.5 2.5 0 0 0 4.4-.5L351.8 30a22.2 22.2 0 0 0-13.4-28.6 22.2 22.2 0 0 0-28.6 13.4L280.1 97c-.3.7-.2 1.4.1 2z"/><path d="M302 138.3a22.3 22.3 0 0 0-44.7 0v86.4h-8V100.9a22.3 22.3 0 0 0-44.6 0v123.8h-8V65.4a22.3 22.3 0 0 0-44.6 0v159.3h-8V100.9a22.3 22.3 0 0 0-44.6 0v141.3l-25.6-29.6A27.5 27.5 0 0 0 58 203l-3-.3c-4.8 0-9.2 1.8-13.1 5.2-11.1 9.6-12.7 22-5 37.9l62.7 119.6-8.3 96.8a2.5 2.5 0 0 0 2.5 2.7H308a2.5 2.5 0 0 0 2.5-2.7l-8.6-96.4V138.3zm116-32.6a22.2 22.2 0 0 0-28.6 13.4l-29.3 81.2-7.5-2.7 42-116.4A22.3 22.3 0 0 0 352.8 66l-36.1 100-.2 1v191.3l7.1 79.5a2.5 2.5 0 0 0 4.9.5l25.8-90.2 77.3-213.9a22.3 22.3 0 0 0-13.4-28.5z"/></symbol><symbol id="sitemap" viewBox="0 0 1792 1792"><path d="M1792 1248v320q0 40-28 68t-68 28h-320q-40 0-68-28t-28-68v-320q0-40 28-68t68-28h96V960H960v192h96q40 0 68 28t28 68v320q0 40-28 68t-68 28H736q-40 0-68-28t-28-68v-320q0-40 28-68t68-28h96V960H320v192h96q40 0 68 28t28 68v320q0 40-28 68t-68 28H96q-40 0-68-28t-28-68v-320q0-40 28-68t68-28h96V960q0-52 38-90t90-38h512V640h-96q-40 0-68-28t-28-68V224q0-40 28-68t68-28h320q40 0 68 28t28 68v320q0 40-28 68t-68 28h-96v192h512q52 0 90 38t38 90v192h96q40 0 68 28t28 68z"/></symbol><symbol id="soc-facebook" viewBox="0 0 100 100"><circle cx="50" cy="50" r="45" fill="#43619B"/><path fill="#FFF" fill-rule="evenodd" d="M58.4 31.8V38h-4c-1 0-1.6.5-1.7 1.5v4h5.8l-.7 6.5h-5.1v18.3h-7.6V50h-3.6v-6.4h3.6v-5.1c.3-2.4 1.2-4.5 3.4-5.8 1.2-.7 2.4-1 3.7-1h6.2z" clip-rule="evenodd"/></symbol><symbol id="soc-instagram" viewBox="0 0 100 100"><circle cx="50" cy="50" r="45" fill="#2A5C83"/><path fill="#FFF" d="M63.2 32.7H36.8a4.1 4.1 0 0 0-4.1 4v26.5c0 2.3 1.8 4.1 4.1 4.1h26.4c2.3 0 4.1-1.8 4.1-4V36.7c0-2.3-1.8-4.1-4.1-4.1zM57.6 38c0-.6.5-1 1-1H62c.6 0 1 .4 1 1v3.2c0 .6-.4 1.1-1 1.1h-3.2a1 1 0 0 1-1.1-1V38zM50 43.4a6.7 6.7 0 1 1 0 13.3 6.7 6.7 0 0 1 0-13.3zM64 63c0 .6-.4 1-1 1H37a1 1 0 0 1-1-1V46.8h4.3c-.6.8-.8 2.3-.8 3.2a10.5 10.5 0 0 0 21 0c0-1 0-2.4-.8-3.2h4.4V63z"/></symbol><symbol id="soc-odnoklassniki" viewBox="0 0 100 100"><circle cx="50" cy="50" r="45" fill="#F99400"/><g fill="#FFF" fill-rule="evenodd" clip-rule="evenodd"><path d="M45.72 59.26a19.6 19.6 0 0 1-6.08-2.52 3.08 3.08 0 0 1-1.03-4.22 3.06 3.06 0 0 1 4.24-1.05c1.46.88 3 1.52 4.68 1.83 3.31.59 6.42.04 9.32-1.66.59-.35 1.18-.62 1.89-.62a3.1 3.1 0 0 1 2.96 2.19c.4 1.3-.1 2.73-1.26 3.47a19.24 19.24 0 0 1-5.85 2.5l-.3.08.21.24 5.56 5.56a3.1 3.1 0 1 1-4.3 4.42c-1.86-1.84-3.7-3.68-5.54-5.53l-.27-.3c-.06.12-.1.22-.16.3l-5.55 5.54a3.08 3.08 0 1 1-4.51-4.2c.15-.18.31-.34.47-.5l5.3-5.3.22-.23z"/><path d="M50 29.57a10.53 10.53 0 1 1-10.55 10.56 10.55 10.55 0 0 1 10.56-10.56zm4.36 10.55a4.36 4.36 0 1 0-8.72-.02 4.36 4.36 0 0 0 8.72.02z"/></g></symbol><symbol id="soc-twitter" viewBox="0 0 100 100"><circle cx="50" cy="50" r="45" fill="#2EA6DE"/><path fill="#FFF" d="M68.8 34a16 16 0 0 1-5.2 2 8 8 0 0 0-6-2.6 8.3 8.3 0 0 0-7.9 10.3A23 23 0 0 1 32.9 35a8.5 8.5 0 0 0 2.5 11 8 8 0 0 1-3.7-1c0 4.1 2.8 7.5 6.6 8.3a7.8 7.8 0 0 1-3.7.1c1 3.4 4 5.8 7.6 5.8a16.1 16.1 0 0 1-12 3.5c3.5 2.4 7.8 3.8 12.4 3.8 15 0 23.2-12.8 23.2-23.8v-1.1c1.6-1.2 3-2.7 4-4.3a16 16 0 0 1-4.6 1.3c1.7-1 3-2.7 3.6-4.6z"/></symbol><symbol id="soc-vk" viewBox="0 0 100 100"><circle cx="50" cy="50" r="45" fill="#4A74A5"/><path fill="#FFF" fill-rule="evenodd" d="M42.27 38.83c.21-.55.6-.89 1.09-1.13.92-.45 1.92-.6 2.93-.57 1.44.03 2.88.12 4.32.18a5.6 5.6 0 0 1 1.9.3 2.1 2.1 0 0 1 1.42 2.03c.01.78-.1 1.56-.12 2.34-.06 1.67-.13 3.34-.13 5 0 .54.22 1.07.36 1.59.04.15.14.28.23.4.35.5.47.5.96.19a7.97 7.97 0 0 0 2.21-2.25 25.26 25.26 0 0 0 2.21-3.74c.62-1.3 1.24-2.61 1.83-3.94.28-.66.73-.94 1.45-.93h8.09c.86 0 1.48.74 1.28 1.59-.2.9-.6 1.7-1.08 2.46a44.05 44.05 0 0 1-4.52 6.15 6.33 6.33 0 0 0-1.41 2.27c-.3.95-.1 1.78.6 2.49 1.25 1.25 2.54 2.47 3.76 3.75.73.76 1.36 1.6 2 2.44.4.54.67 1.15.6 1.86-.09.78-.49 1.19-1.27 1.23-1.52.08-3.04.14-4.56.2-.89.04-1.77.1-2.66.13-.7.03-1.34-.23-1.94-.57-.95-.55-1.75-1.3-2.53-2.05a13.95 13.95 0 0 1-2.17-2.58c-.39-.6-1.46-.94-2.13-.69-.52.2-.77.62-.82 1.15-.1.87-.14 1.75-.22 2.62-.1 1.07-.78 1.74-1.85 1.88-2.1.29-4.2.18-6.27-.23a10.67 10.67 0 0 1-4.1-1.92 25.9 25.9 0 0 1-6.5-6.9 91.59 91.59 0 0 1-5.4-8.85c-.77-1.47-1.54-2.94-1.95-4.57-.1-.36-.14-.74-.21-1.11-.04-.19.03-.32.2-.37.44-.14.87-.34 1.32-.36 1.43-.06 2.86-.05 4.29-.06.62 0 1.24.06 1.85.03.83-.05 1.39.34 1.74 1.03.36.7.67 1.42 1 2.12 1.23 2.53 2.55 5 4.26 7.25.25.33.63.59 1 .8.44.25.82.12 1.09-.31.32-.52.46-1.09.47-1.69.03-1.69.08-3.38.06-5.06-.02-1.75-.88-2.9-2.52-3.53l-.16-.07z" clip-rule="evenodd"/></symbol><symbol id="woman-boots" viewBox="0 0 433.3 433.3"><path d="M354.7 366.1c-69.7-19.4-183.7-91.9-188.6-95l-2.3-1.4V86.3a5 5 0 0 0-5-5H34a5 5 0 0 0-5 5v214l-.2.8c-.2.7-18.7 66.5-3.3 124.8l1 3.7a5 5 0 0 0 4.8 3.7H109a5 5 0 0 0 5-5v-29h39.4l67.5 33.5a5 5 0 0 0 2.2.5h165.6a5 5 0 0 0 5-5.1l-.2-5.2c-.6-17.4-6.5-47.9-38.8-56.9z"/><path d="M414 379.3l-1.4-16a47.5 47.5 0 0 0-25.6-40c-59.8-31.5-149.5-120-153.2-123.7l-1.6-1.5 36.1-167.3a5 5 0 0 0-3.8-6L150 .1a5 5 0 0 0-6 3.8l-12 56.4a5 5 0 0 0 4.8 6h44.5v190.1a5 5 0 0 0 2.4 4.3l2.3 1.4c27.2 16.9 120.5 73 178.9 89.4a58.4 58.4 0 0 1 30.1 19l10.2 12.4a5 5 0 0 0 8.9-3.6z"/></symbol><symbol id="working-coverall" viewBox="0 0 474.6 474.6"><path d="M434 217.5L335 38a5 5 0 0 0-4.5-2.6h-48.4l9.3-28.9a5 5 0 0 0-4.7-6.5H188a5 5 0 0 0-4.8 6.5l9.3 28.9h-48.3c-.5 0-1 0-1.5.2a5 5 0 0 0-3 2.4l-99 179.5a5 5 0 0 0 2 6.8L91.2 251a5 5 0 0 0 6.8-2l53.6-97 10 89.5-33 227.4a5 5 0 0 0 4.9 5.7h72a5 5 0 0 0 5-4.3l26.8-184.7 26.9 184.7a5 5 0 0 0 5 4.3h72c2.7 0 5.6-2 4.8-6.1l-33-227 10-89.6 53.6 97.2a5 5 0 0 0 6.8 2l48.5-26.8a5 5 0 0 0 2-6.8zm-186.7 1a10 10 0 1 1-20 0V63a10 10 0 1 1 20 0v155.3z"/></symbol></svg>