<svg xmlns="http://www.w3.org/2000/svg" fill-rule="evenodd" clip-rule="evenodd" image-rendering="optimizeQuality" shape-rendering="geometricPrecision" text-rendering="geometricPrecision" viewBox="0 0 18.89 8.44">
  <g fill-rule="nonzero">
    <path fill="#558b2f" d="M0 0h5.93v1.4H1.82v2.2h2.67v-.42H2.25V1.82h2.48c.41 0 .78.16 1.1.47.32.31.48.69.48 1.12 0 .44-.14.81-.42 1.12-.28.31-.62.47-1.02.47H0V0z"/>
    <path fill="#7cb342" d="M12.49 0v1.4H7.11c0-.45.11-.79.33-1.04.22-.24.54-.36.97-.36h4.08zM7.11 1.82V3.6A1.37 1.37 0 0 0 8.51 5h3.98V3.6H8.93V1.82H7.11zM18.66 0v1.4h-5.38c0-.45.11-.79.33-1.04.22-.24.54-.36.97-.36h4.08zm-5.38 1.82V3.6a1.37 1.37 0 0 0 1.4 1.4h3.98V3.6h-3.55V1.82h-1.83z"/>
    <path fill="#fff" d="M1.58 7.51l.01.01a.56.56 0 0 1-.22.4.81.81 0 0 1-.49.14.72.72 0 0 1-.53-.2.7.7 0 0 1-.21-.53v-.27c0-.21.07-.39.21-.52a.7.7 0 0 1 .53-.21c.21 0 .37.05.5.14.12.1.19.23.21.4l-.01.01h-.15a.5.5 0 0 0-.17-.32.61.61 0 0 0-.38-.11.56.56 0 0 0-.42.17.63.63 0 0 0-.15.44v.27c0 .18.05.33.15.44.11.12.24.17.42.17.16 0 .29-.03.38-.11a.48.48 0 0 0 .17-.32h.15zm1.87.53h-.16V6.47H2.16v1.57H2V6.36h1.45v1.68zm1.62-.82h-.94v.7h1.08v.12H3.96V6.36h1.25v.11H4.13v.64h.94v.11zm.48-.86h.16v1.56h1.12V6.36h.16v1.56h.2l-.02.52h-.14v-.4H5.55V6.36zm3.43.97a.7.7 0 0 1-.21.53.8.8 0 0 1-.56.2.76.76 0 0 1-.55-.2.7.7 0 0 1-.21-.53v-.27a.7.7 0 0 1 .21-.53c.13-.13.32-.2.55-.2a.8.8 0 0 1 .56.2.7.7 0 0 1 .21.53v.27zm-.16-.27a.6.6 0 0 0-.16-.44.61.61 0 0 0-.45-.17.57.57 0 0 0-.44.17.6.6 0 0 0-.16.44v.27c0 .19.06.33.16.45.11.11.25.16.44.16a.6.6 0 0 0 .45-.16.6.6 0 0 0 .16-.45v-.27zm2.19 1.38h-.15v-.4h-1.5v.4h-.14l-.02-.52h.13c.08-.07.15-.18.23-.33.07-.15.11-.36.13-.63l.03-.6h1.09v1.56h.21l-.01.52zM9.85 6.96a2 2 0 0 1-.11.58c-.06.16-.14.29-.22.38h1.13V6.47h-.77l-.03.49zm2.63.26h-.95v.7h1.09v.12h-1.25V6.36h1.24v.11h-1.08v.64h.95v.11zm1.75.02h-.22v.8h-.16v-.8h-.23l-.68.8h-.2l.73-.87-.68-.81h.2l.62.76h.24v-.76h.16v.76h.23l.62-.76h.2l-.68.81.73.87h-.21l-.67-.8zm2.85 1.2h-.15v-.4h-1.5v.4h-.14l-.02-.52h.13a1 1 0 0 0 .22-.33c.08-.15.12-.36.14-.63l.03-.6h1.09v1.56h.21l-.01.52zm-1.16-1.48a2.4 2.4 0 0 1-.11.58c-.06.16-.14.29-.22.38h1.13V6.47h-.77l-.03.49zm2.6.61h-.9l-.21.47h-.17l.75-1.68h.16l.74 1.68h-.17l-.2-.47zm-.85-.12h.8l-.4-.91h-.01l-.39.91z"/>
  </g>
</svg>
