<svg xmlns="http://www.w3.org/2000/svg" viewBox="0 0 612 612">
  <path d="M587.6 186.9a299.8 299.8 0 0 0-163-162.3 300.8 300.8 0 0 0-237.9 0A300.8 300.8 0 0 0 24.1 186.9 297.8 297.8 0 0 0 0 305.7c0 41.5 7.9 81.3 24 119a301.4 301.4 0 0 0 162.7 162.7 300.9 300.9 0 0 0 237.9 0 300.5 300.5 0 0 0 163-162.6A299.3 299.3 0 0 0 612 305.7c0-41.5-8.2-81-24.4-118.8zm-48.9 254c-24 41.1-57 73.8-98.4 98A263.6 263.6 0 0 1 305.5 575a273.6 273.6 0 0 1-190-78.6A272 272 0 0 1 73 171.2c24-41.3 56.8-74 98-98C212 49 257 37 305.5 37S399.1 49 440.3 73a269.3 269.3 0 0 1 98.4 98c24.1 41.2 36.2 86 36.2 134.6a264 264 0 0 1-36.2 135.2z"/>
  <path d="M325 303V129.7c0-10.4-9.1-18.8-19.5-18.8-9.7 0-18.4 8.4-18.4 18.8v176c0 .3.7 1.6.7 2.6-.7 6 1 11 5 15.1l100 100a19 19 0 0 0 25.8 0 18 18 0 0 0 0-26L324.9 303z"/>
</svg>
