<svg xmlns="http://www.w3.org/2000/svg" viewBox="0 0 488 488">
  <circle cx="179.2" cy="202.6" r="20.4"/>
  <circle cx="308.8" cy="285.4" r="20.4"/>
  <path d="M477 271l-7.4-10.1c-8-11-8.2-26-.3-37.1l7.2-10.2a31.8 31.8 0 0 0-11-46.4l-11-6a31.7 31.7 0 0 1-16.3-33.2l2-12.3a31.8 31.8 0 0 0-30-37l-12.4-.5a31.9 31.9 0 0 1-29.2-23l-3.5-12A31.7 31.7 0 0 0 322 23l-11.5 4.9a31.7 31.7 0 0 1-36.2-8l-8.3-9.3a31.7 31.7 0 0 0-47.6.4l-8.2 9.4a31.8 31.8 0 0 1-36.1 8.5L162.5 24a31.8 31.8 0 0 0-42.8 21l-3.3 12a31.6 31.6 0 0 1-28.8 23.4l-12.5.7a31.7 31.7 0 0 0-29.4 37.5L48 131a31.7 31.7 0 0 1-15.8 33.5l-11 6a31.7 31.7 0 0 0-10.1 46.6l7.4 10c8 11 8.2 26 .3 37.2l-7.2 10.2a31.8 31.8 0 0 0 11 46.4l11 5.9A31.7 31.7 0 0 1 49.9 360l-2.1 12.3a31.8 31.8 0 0 0 30 37l12.5.5c13.6.6 25.4 9.8 29.2 22.9l3.5 12a31.7 31.7 0 0 0 43 20.3l11.6-5a31.7 31.7 0 0 1 36.2 8l8.3 9.4a31.7 31.7 0 0 0 47.6-.4l8.2-9.4a31.8 31.8 0 0 1 36-8.5l11.7 4.8a31.8 31.8 0 0 0 42.8-21l3.3-12.1a31.6 31.6 0 0 1 28.8-23.3l12.5-.7a31.7 31.7 0 0 0 29.4-37.5L440 357a31.7 31.7 0 0 1 15.8-33.5l10.9-6.1A31.7 31.7 0 0 0 477 271zm-347.1-68.4a49.2 49.2 0 1 1 98.3-.1 49.2 49.2 0 0 1-98.3 0zm58.7 126.9a12 12 0 0 1-18.5-15.3l129-155.5a12 12 0 0 1 18.6 15.3L188.6 329.5zm120.2 5a49.2 49.2 0 1 1-.1-98.3 49.2 49.2 0 0 1 0 98.4z"/>
</svg>
