<svg xmlns="http://www.w3.org/2000/svg" viewBox="0 0 100 100">
  <circle cx="50" cy="50" r="45" fill="#2A5C83"/>
  <path fill="#FFF" d="M63.2 32.7H36.8a4.1 4.1 0 0 0-4.1 4v26.5c0 2.3 1.8 4.1 4.1 4.1h26.4c2.3 0 4.1-1.8 4.1-4V36.7c0-2.3-1.8-4.1-4.1-4.1zM57.6 38c0-.6.5-1 1-1H62c.6 0 1 .4 1 1v3.2c0 .6-.4 1.1-1 1.1h-3.2a1 1 0 0 1-1.1-1V38zM50 43.4a6.7 6.7 0 1 1 0 13.3 6.7 6.7 0 0 1 0-13.3zM64 63c0 .6-.4 1-1 1H37a1 1 0 0 1-1-1V46.8h4.3c-.6.8-.8 2.3-.8 3.2a10.5 10.5 0 0 0 21 0c0-1 0-2.4-.8-3.2h4.4V63z"/>
</svg>
