<svg xmlns="http://www.w3.org/2000/svg" width="474.6" height="474.6" viewBox="0 0 474.6 474.6">
  <path d="M434 217.5L335 38a5 5 0 0 0-4.5-2.6h-48.4l9.3-28.9a5 5 0 0 0-4.7-6.5H188a5 5 0 0 0-4.8 6.5l9.3 28.9h-48.3c-.5 0-1 0-1.5.2a5 5 0 0 0-3 2.4l-99 179.5a5 5 0 0 0 2 6.8L91.2 251a5 5 0 0 0 6.8-2l53.6-97 10 89.5-33 227.4a5 5 0 0 0 4.9 5.7h72a5 5 0 0 0 5-4.3l26.8-184.7 26.9 184.7a5 5 0 0 0 5 4.3h72c2.7 0 5.6-2 4.8-6.1l-33-227 10-89.6 53.6 97.2a5 5 0 0 0 6.8 2l48.5-26.8a5 5 0 0 0 2-6.8zm-186.7 1a10 10 0 1 1-20 0V63a10 10 0 1 1 20 0v155.3z"/>
</svg>
